<svg xmlns="http://www.w3.org/2000/svg" width="1200" height="640" viewBox="0 0 1200 640" role="img" aria-labelledby="title desc">
  <title id="title">Documentation publishing flow</title>
  <desc id="desc">Canonical Markdown and generated tool indexes feed the static docs site and the GitHub Wiki mirror while README stays a quick entry point.</desc>
  <defs>
    <marker id="arrow" viewBox="0 0 10 10" refX="8" refY="5" markerWidth="7" markerHeight="7" orient="auto-start-reverse">
      <path d="M 0 0 L 10 5 L 0 10 z" fill="#294951"/>
    </marker>
    <style>
      .bg { fill: #fbfcfa; }
      .title { font: 700 28px system-ui, -apple-system, BlinkMacSystemFont, "Segoe UI", sans-serif; fill: #17252a; }
      .subtitle { font: 400 16px system-ui, -apple-system, BlinkMacSystemFont, "Segoe UI", sans-serif; fill: #536269; }
      .box { stroke-width: 2; rx: 18; }
      .label { font: 700 17px system-ui, -apple-system, BlinkMacSystemFont, "Segoe UI", sans-serif; fill: #17252a; }
      .body { font: 400 13px system-ui, -apple-system, BlinkMacSystemFont, "Segoe UI", sans-serif; fill: #405057; }
      .arrow { fill: none; stroke: #294951; stroke-width: 2.4; marker-end: url(#arrow); }
      .dashed { fill: none; stroke: #77868c; stroke-width: 2; marker-end: url(#arrow); stroke-dasharray: 6 6; }
    </style>
  </defs>

  <rect class="bg" x="0" y="0" width="1200" height="640"/>
  <text class="title" x="52" y="58">Documentation publishing flow</text>
  <text class="subtitle" x="52" y="86">Edit canonical sources first; generated payloads and wiki pages are mirrors, not competing originals.</text>

  <rect class="box" x="70" y="142" width="244" height="122" fill="#eaf4f0" stroke="#3a7c69"/>
  <text class="label" x="98" y="180">Canonical docs</text>
  <text class="body" x="98" y="208">README, ARCHITECTURE,</text>
  <text class="body" x="98" y="230">DEPLOYMENT, docs/*.md,</text>
  <text class="body" x="98" y="252">docs/images/*.svg</text>

  <rect class="box" x="70" y="342" width="244" height="112" fill="#eef2ff" stroke="#4f68a8"/>
  <text class="label" x="98" y="380">Tool registry</text>
  <text class="body" x="98" y="408">tool_registry.py</text>
  <text class="body" x="98" y="430">runtime tools, categories</text>

  <rect class="box" x="386" y="342" width="244" height="112" fill="#f7f8ff" stroke="#4f68a8"/>
  <text class="label" x="414" y="380">Generated index</text>
  <text class="body" x="414" y="408">count_mcp_tools.py</text>
  <text class="body" x="414" y="430">TOOLS_INDEX.md</text>

  <rect class="box" x="386" y="142" width="244" height="122" fill="#fff5df" stroke="#b27b21"/>
  <text class="label" x="414" y="180">Docs site builder</text>
  <text class="body" x="414" y="208">build_docs_site.py</text>
  <text class="body" x="414" y="230">site-content/*.md</text>
  <text class="body" x="414" y="252">site-content.js</text>

  <rect class="box" x="708" y="132" width="206" height="112" fill="#edf7ff" stroke="#3578a7"/>
  <text class="label" x="736" y="170">GitHub Pages</text>
  <text class="body" x="736" y="198">docs/index.html</text>
  <text class="body" x="736" y="220">language switch site</text>

  <rect class="box" x="708" y="292" width="206" height="112" fill="#f8eff7" stroke="#99609a"/>
  <text class="label" x="736" y="330">GitHub Wiki</text>
  <text class="body" x="736" y="358">build_github_wiki.py</text>
  <text class="body" x="736" y="380">separate wiki repo</text>

  <rect class="box" x="708" y="462" width="206" height="100" fill="#eef7eb" stroke="#5f8d3e"/>
  <text class="label" x="736" y="500">README role</text>
  <text class="body" x="736" y="528">quick entry point</text>
  <text class="body" x="736" y="550">links to deeper docs</text>

  <rect class="box" x="980" y="218" width="154" height="156" fill="#ffffff" stroke="#cbd7d3"/>
  <text class="label" x="1008" y="256">Readers</text>
  <text class="body" x="1008" y="286">users</text>
  <text class="body" x="1008" y="310">developers</text>
  <text class="body" x="1008" y="334">AI clients</text>

  <path class="arrow" d="M 314 203 H 374"/>
  <path class="arrow" d="M 630 203 H 696"/>
  <path class="arrow" d="M 914 188 C 946 208 960 236 968 260"/>
  <path class="arrow" d="M 314 398 H 374"/>
  <path class="dashed" d="M 508 342 V 276"/>
  <path class="arrow" d="M 314 203 C 520 272 600 316 696 348"/>
  <path class="arrow" d="M 914 348 C 946 338 960 326 968 310"/>
  <path class="dashed" d="M 314 203 C 500 500 612 520 696 516"/>
  <path class="dashed" d="M 914 516 C 950 468 966 398 968 346"/>

  <text class="body" x="388" y="512">Source docs are edited by humans; generated pages are rebuilt and checked in.</text>
</svg>
