<svg xmlns="http://www.w3.org/2000/svg" width="1200" height="660" viewBox="0 0 1200 660" role="img" aria-labelledby="title desc">
  <title id="title">Client integration and deployment workflow</title>
  <desc id="desc">How local stdio clients, streamable HTTP clients, Copilot Studio, HTTPS reverse proxy, Docker, and GitHub Pages documentation fit together.</desc>
  <defs>
    <marker id="arrow" viewBox="0 0 10 10" refX="8" refY="5" markerWidth="7" markerHeight="7" orient="auto-start-reverse">
      <path d="M 0 0 L 10 5 L 0 10 z" fill="#263f46"/>
    </marker>
    <style>
      .bg { fill: #fbfcfa; }
      .title { font: 700 28px system-ui, -apple-system, BlinkMacSystemFont, "Segoe UI", sans-serif; fill: #17252a; }
      .subtitle { font: 400 16px system-ui, -apple-system, BlinkMacSystemFont, "Segoe UI", sans-serif; fill: #526168; }
      .box { stroke-width: 2; rx: 18; }
      .label { font: 700 18px system-ui, -apple-system, BlinkMacSystemFont, "Segoe UI", sans-serif; fill: #152126; }
      .body { font: 400 14px system-ui, -apple-system, BlinkMacSystemFont, "Segoe UI", sans-serif; fill: #3e4a50; }
      .small { font: 600 12px system-ui, -apple-system, BlinkMacSystemFont, "Segoe UI", sans-serif; fill: #435159; }
      .arrow { fill: none; stroke: #263f46; stroke-width: 2.5; marker-end: url(#arrow); }
      .soft { fill: none; stroke: #7b8a90; stroke-width: 2; stroke-dasharray: 5 6; marker-end: url(#arrow); }
    </style>
  </defs>
  <rect class="bg" width="1200" height="660"/>
  <text class="title" x="52" y="58">Integration and deployment choices</text>
  <text class="subtitle" x="52" y="86">Choose stdio for local clients, streamable HTTP for remote clients, and Copilot-compatible routes when schema constraints matter.</text>

  <rect class="box" x="60" y="156" width="212" height="118" fill="#eef2ff" stroke="#4f68a8"/>
  <text class="label" x="86" y="196">Local clients</text>
  <text class="body" x="86" y="226">VS Code, Claude,</text>
  <text class="body" x="86" y="248">Cursor, Cline, Zed</text>

  <rect class="box" x="60" y="374" width="212" height="118" fill="#f8eff7" stroke="#99609a"/>
  <text class="label" x="86" y="414">Remote clients</text>
  <text class="body" x="86" y="444">Copilot Studio, web,</text>
  <text class="body" x="86" y="466">or hosted agents</text>

  <rect class="box" x="350" y="156" width="216" height="118" fill="#eaf4f0" stroke="#3a7c69"/>
  <text class="label" x="376" y="196">stdio server</text>
  <text class="body" x="376" y="226">uvx pubmed-search-mcp</text>
  <text class="body" x="376" y="248">background cache API</text>

  <rect class="box" x="350" y="374" width="216" height="118" fill="#fff5df" stroke="#b27b21"/>
  <text class="label" x="376" y="414">streamable HTTP</text>
  <text class="body" x="376" y="444">pubmed-search-mcp-http</text>
  <text class="body" x="376" y="466">or run_copilot.py</text>

  <rect class="box" x="648" y="374" width="216" height="118" fill="#edf7ff" stroke="#3578a7"/>
  <text class="label" x="674" y="414">HTTPS wrapper</text>
  <text class="body" x="674" y="444">Nginx, cloud LB,</text>
  <text class="body" x="674" y="466">Docker or ngrok</text>

  <rect class="box" x="946" y="264" width="190" height="118" fill="#f1f5e8" stroke="#71883b"/>
  <text class="label" x="972" y="304">MCP surface</text>
  <text class="body" x="972" y="334">46-tool primary</text>
  <text class="body" x="972" y="356">or simplified route</text>

  <rect class="box" x="648" y="112" width="216" height="118" fill="#f5f1ea" stroke="#947245"/>
  <text class="label" x="674" y="152">Docs publishing</text>
  <text class="body" x="674" y="182">GitHub Pages and</text>
  <text class="body" x="674" y="204">GitHub Wiki sync</text>

  <path class="arrow" d="M 272 215 H 338"/>
  <path class="arrow" d="M 272 433 H 338"/>
  <path class="arrow" d="M 566 433 H 636"/>
  <path class="arrow" d="M 864 433 C 910 414 934 372 946 340"/>
  <path class="arrow" d="M 566 215 C 720 226 860 264 946 302"/>
  <path class="soft" d="M 756 230 C 780 298 796 342 864 386"/>

  <rect x="92" y="560" width="1016" height="58" rx="18" fill="#ffffff" stroke="#c9d4d0" stroke-width="2"/>
  <text class="small" x="118" y="594">Deploy docs after changing tool surface or workflows: count_mcp_tools --update-docs, build_docs_site, build_github_wiki.</text>
</svg>
