<svg xmlns="http://www.w3.org/2000/svg" width="1200" height="620" viewBox="0 0 1200 620" role="img" aria-labelledby="title desc">
  <title id="title">PICO clinical search workflow</title>
  <desc id="desc">How an agent-provided PICO handoff is validated, expanded into MeSH and synonyms, assembled into Boolean search, filtered, and executed.</desc>
  <defs>
    <marker id="arrow" viewBox="0 0 10 10" refX="8" refY="5" markerWidth="7" markerHeight="7" orient="auto-start-reverse">
      <path d="M 0 0 L 10 5 L 0 10 z" fill="#263f46"/>
    </marker>
    <style>
      .bg { fill: #fbfcfa; }
      .title { font: 700 28px system-ui, -apple-system, BlinkMacSystemFont, "Segoe UI", sans-serif; fill: #17252a; }
      .subtitle { font: 400 16px system-ui, -apple-system, BlinkMacSystemFont, "Segoe UI", sans-serif; fill: #526168; }
      .box { stroke-width: 2; rx: 18; }
      .label { font: 700 18px system-ui, -apple-system, BlinkMacSystemFont, "Segoe UI", sans-serif; fill: #152126; }
      .body { font: 400 14px system-ui, -apple-system, BlinkMacSystemFont, "Segoe UI", sans-serif; fill: #3e4a50; }
      .small { font: 600 12px system-ui, -apple-system, BlinkMacSystemFont, "Segoe UI", sans-serif; fill: #435159; }
      .arrow { fill: none; stroke: #263f46; stroke-width: 2.5; marker-end: url(#arrow); }
      .soft { fill: none; stroke: #7b8a90; stroke-width: 2; stroke-dasharray: 5 6; marker-end: url(#arrow); }
    </style>
  </defs>
  <rect class="bg" width="1200" height="620"/>
  <text class="title" x="52" y="58">PICO clinical search workflow</text>
  <text class="subtitle" x="52" y="86">Clinical comparison search works best when agent extraction, PICO validation, query expansion, and final execution are separate steps.</text>

  <rect class="box" x="54" y="160" width="180" height="118" fill="#eef2ff" stroke="#4f68a8"/>
  <text class="label" x="80" y="200">Question</text>
  <text class="body" x="80" y="230">clinical comparison</text>
  <text class="body" x="80" y="252">or outcome prompt</text>

  <rect class="box" x="292" y="160" width="178" height="118" fill="#eaf4f0" stroke="#3a7c69"/>
  <text class="label" x="318" y="200">parse_pico</text>
  <text class="body" x="318" y="230">validate P/I/C/O</text>
  <text class="body" x="318" y="252">return pipeline</text>

  <rect class="box" x="528" y="160" width="200" height="118" fill="#fff5df" stroke="#b27b21"/>
  <text class="label" x="554" y="200">Expand elements</text>
  <text class="body" x="554" y="230">generate_search_queries</text>
  <text class="body" x="554" y="252">MeSH and synonyms</text>

  <rect class="box" x="786" y="160" width="178" height="118" fill="#f8eff7" stroke="#99609a"/>
  <text class="label" x="812" y="200">Agent choice</text>
  <text class="body" x="812" y="230">precision vs recall</text>
  <text class="body" x="812" y="252">Boolean assembly</text>

  <rect class="box" x="1022" y="160" width="130" height="118" fill="#edf7ff" stroke="#3578a7"/>
  <text class="label" x="1046" y="200">Search</text>
  <text class="body" x="1046" y="230">unified_search</text>
  <text class="body" x="1046" y="252">with filters</text>

  <path class="arrow" d="M 234 219 H 280"/>
  <path class="arrow" d="M 470 219 H 516"/>
  <path class="arrow" d="M 728 219 H 774"/>
  <path class="arrow" d="M 964 219 H 1010"/>

  <rect x="138" y="408" width="244" height="98" rx="18" fill="#ffffff" stroke="#c9d4d0" stroke-width="2"/>
  <text class="small" x="164" y="444">Example filter</text>
  <text class="body" x="164" y="472">clinical:therapy, year:2020-, humans</text>

  <rect x="478" y="408" width="244" height="98" rx="18" fill="#ffffff" stroke="#c9d4d0" stroke-width="2"/>
  <text class="small" x="504" y="444">High precision</text>
  <text class="body" x="504" y="472">P AND I AND C AND O with MeSH terms</text>

  <rect x="818" y="408" width="244" height="98" rx="18" fill="#ffffff" stroke="#c9d4d0" stroke-width="2"/>
  <text class="small" x="844" y="444">High recall</text>
  <text class="body" x="844" y="472">P AND intervention synonyms, broader O</text>

  <path class="soft" d="M 876 278 C 858 340 824 396 722 436"/>
  <path class="soft" d="M 876 278 C 900 344 902 392 940 408"/>
</svg>
